<mxfile host="app.diagrams.net" modified="2022-11-30T16:06:10.576Z" agent="5.0 (Macintosh; Intel Mac OS X 10_15_7) AppleWebKit/537.36 (KHTML, like Gecko) Chrome/107.0.0.0 Safari/537.36" etag="4v9cDpkiM7O5eMzOWNVK" version="20.5.3" type="github">
  <diagram id="R2lEEEUBdFMjLlhIrx00" name="Page-1">
    <mxGraphModel dx="1186" dy="764" grid="1" gridSize="10" guides="1" tooltips="1" connect="1" arrows="1" fold="1" page="1" pageScale="1" pageWidth="850" pageHeight="1100" math="0" shadow="0" extFonts="Permanent Marker^https://fonts.googleapis.com/css?family=Permanent+Marker">
      <root>
        <mxCell id="0" />
        <mxCell id="1" parent="0" />
        <mxCell id="12QGQxB1_NTD2Or55DpA-3" value="Actor" style="shape=umlActor;verticalLabelPosition=bottom;verticalAlign=top;html=1;outlineConnect=0;" vertex="1" parent="1">
          <mxGeometry x="40" y="320" width="30" height="60" as="geometry" />
        </mxCell>
        <mxCell id="12QGQxB1_NTD2Or55DpA-7" value="hertz-gateway" style="text;html=1;align=center;verticalAlign=middle;resizable=0;points=[];autosize=1;strokeColor=none;fillColor=none;" vertex="1" parent="1">
          <mxGeometry x="210" y="290" width="100" height="30" as="geometry" />
        </mxCell>
        <mxCell id="12QGQxB1_NTD2Or55DpA-16" value="" style="edgeStyle=orthogonalEdgeStyle;rounded=0;orthogonalLoop=1;jettySize=auto;html=1;" edge="1" parent="1" source="12QGQxB1_NTD2Or55DpA-9" target="12QGQxB1_NTD2Or55DpA-15">
          <mxGeometry relative="1" as="geometry" />
        </mxCell>
        <mxCell id="12QGQxB1_NTD2Or55DpA-9" value="Customer&#xa;gateway" style="sketch=0;outlineConnect=0;fontColor=#232F3E;gradientColor=none;strokeColor=#232F3E;fillColor=#ffffff;dashed=0;verticalLabelPosition=bottom;verticalAlign=top;align=center;html=1;fontSize=12;fontStyle=0;aspect=fixed;shape=mxgraph.aws4.resourceIcon;resIcon=mxgraph.aws4.customer_gateway;" vertex="1" parent="1">
          <mxGeometry x="230" y="320" width="60" height="60" as="geometry" />
        </mxCell>
        <mxCell id="12QGQxB1_NTD2Or55DpA-10" value="" style="endArrow=none;html=1;rounded=0;" edge="1" parent="1">
          <mxGeometry width="50" height="50" relative="1" as="geometry">
            <mxPoint x="160" y="510" as="sourcePoint" />
            <mxPoint x="160" y="190" as="targetPoint" />
          </mxGeometry>
        </mxCell>
        <mxCell id="12QGQxB1_NTD2Or55DpA-11" value="" style="html=1;verticalAlign=bottom;labelBackgroundColor=none;endArrow=block;endFill=1;dashed=1;rounded=0;" edge="1" parent="1" source="12QGQxB1_NTD2Or55DpA-3" target="12QGQxB1_NTD2Or55DpA-9">
          <mxGeometry width="160" relative="1" as="geometry">
            <mxPoint x="340" y="390" as="sourcePoint" />
            <mxPoint x="500" y="390" as="targetPoint" />
          </mxGeometry>
        </mxCell>
        <mxCell id="12QGQxB1_NTD2Or55DpA-12" value="POST /gateway/:svc" style="text;html=1;align=center;verticalAlign=middle;resizable=0;points=[];autosize=1;strokeColor=none;fillColor=none;" vertex="1" parent="1">
          <mxGeometry x="92" y="320" width="130" height="30" as="geometry" />
        </mxCell>
        <mxCell id="12QGQxB1_NTD2Or55DpA-35" style="edgeStyle=orthogonalEdgeStyle;rounded=0;orthogonalLoop=1;jettySize=auto;html=1;entryX=0.025;entryY=0.483;entryDx=0;entryDy=0;entryPerimeter=0;" edge="1" parent="1" source="12QGQxB1_NTD2Or55DpA-15" target="12QGQxB1_NTD2Or55DpA-28">
          <mxGeometry relative="1" as="geometry" />
        </mxCell>
        <mxCell id="12QGQxB1_NTD2Or55DpA-15" value="&amp;nbsp; Hander" style="shape=step;perimeter=stepPerimeter;whiteSpace=wrap;html=1;fixedSize=1;" vertex="1" parent="1">
          <mxGeometry x="340" y="320" width="80" height="60" as="geometry" />
        </mxCell>
        <mxCell id="12QGQxB1_NTD2Or55DpA-20" value="" style="ellipse;whiteSpace=wrap;html=1;aspect=fixed;fillColor=#C3ABD0;gradientColor=none;strokeColor=none;" vertex="1" parent="1">
          <mxGeometry x="580" y="230" width="240" height="240" as="geometry" />
        </mxCell>
        <mxCell id="12QGQxB1_NTD2Or55DpA-23" value="" style="ellipse;whiteSpace=wrap;html=1;aspect=fixed;fillColor=#FFB570;gradientColor=none;strokeColor=none;" vertex="1" parent="1">
          <mxGeometry x="612.5" y="262.5" width="175" height="175" as="geometry" />
        </mxCell>
        <mxCell id="12QGQxB1_NTD2Or55DpA-24" value="" style="ellipse;whiteSpace=wrap;html=1;aspect=fixed;fillColor=#97D077;gradientColor=none;strokeColor=#FF0000;dashed=1;" vertex="1" parent="1">
          <mxGeometry x="643.5" y="292.5" width="115" height="115" as="geometry" />
        </mxCell>
        <mxCell id="12QGQxB1_NTD2Or55DpA-25" value="" style="ellipse;whiteSpace=wrap;html=1;aspect=fixed;fillColor=#7EA6E0;gradientColor=none;strokeColor=none;" vertex="1" parent="1">
          <mxGeometry x="665.5" y="315.5" width="70" height="70" as="geometry" />
        </mxCell>
        <mxCell id="12QGQxB1_NTD2Or55DpA-26" value="Payment Server" style="text;html=1;align=center;verticalAlign=middle;resizable=0;points=[];autosize=1;strokeColor=none;fillColor=none;" vertex="1" parent="1">
          <mxGeometry x="646" y="194" width="110" height="30" as="geometry" />
        </mxCell>
        <mxCell id="12QGQxB1_NTD2Or55DpA-27" value="Kitex" style="text;html=1;align=center;verticalAlign=middle;resizable=0;points=[];autosize=1;strokeColor=none;fillColor=none;" vertex="1" parent="1">
          <mxGeometry x="778" y="335" width="50" height="30" as="geometry" />
        </mxCell>
        <mxCell id="12QGQxB1_NTD2Or55DpA-28" value="IDL" style="text;html=1;align=center;verticalAlign=middle;resizable=0;points=[];autosize=1;strokeColor=none;fillColor=none;" vertex="1" parent="1">
          <mxGeometry x="580" y="335.5" width="40" height="30" as="geometry" />
        </mxCell>
        <mxCell id="12QGQxB1_NTD2Or55DpA-29" value="kitex_gen" style="text;html=1;align=center;verticalAlign=middle;resizable=0;points=[];autosize=1;strokeColor=none;fillColor=none;" vertex="1" parent="1">
          <mxGeometry x="666" y="403" width="70" height="30" as="geometry" />
        </mxCell>
        <mxCell id="12QGQxB1_NTD2Or55DpA-30" value="ent" style="text;html=1;align=center;verticalAlign=middle;resizable=0;points=[];autosize=1;strokeColor=none;fillColor=none;" vertex="1" parent="1">
          <mxGeometry x="749.5" y="335" width="40" height="30" as="geometry" />
        </mxCell>
        <mxCell id="12QGQxB1_NTD2Or55DpA-31" value="Use Cases" style="text;html=1;align=center;verticalAlign=middle;resizable=0;points=[];autosize=1;strokeColor=none;fillColor=none;" vertex="1" parent="1">
          <mxGeometry x="665" y="293.5" width="80" height="30" as="geometry" />
        </mxCell>
        <mxCell id="12QGQxB1_NTD2Or55DpA-32" value="Entities" style="text;html=1;align=center;verticalAlign=middle;resizable=0;points=[];autosize=1;strokeColor=none;fillColor=none;" vertex="1" parent="1">
          <mxGeometry x="673" y="335" width="60" height="30" as="geometry" />
        </mxCell>
      </root>
    </mxGraphModel>
  </diagram>
</mxfile>
